<svg width="122" height="122" viewBox="0 0 122 122" fill="none" xmlns="http://www.w3.org/2000/svg">
<g filter="url(#filter0_b_1471_12)">
<rect x="1" y="1" width="120" height="120" rx="30" fill="#0085FF" fill-opacity="0.3"/>
<rect x="1" y="1" width="120" height="120" rx="30" stroke="#0075FF" stroke-opacity="0.6" stroke-width="2" stroke-miterlimit="4.72157"/>
<g filter="url(#filter1_b_1471_12)">
<rect x="11" y="11" width="100" height="100" rx="30" fill="#081729" fill-opacity="0.4"/>
<path d="M52.7677 84.0227C51.7458 85.2443 50.3265 86.1818 48.7084 86.5795L43.4 87.8864C43.1161 87.9716 42.8323 88 42.5484 88C41.7535 88 40.9871 87.7443 40.3626 87.2614C39.511 86.5795 39 85.5568 39 84.4489V72.2045C39 69.733 39.7097 67.2898 40.9871 65.2159C41.129 67.6307 41.4697 70.0455 42.009 72.4602L42.4632 74.4205C43.4852 79.5341 47.7148 83.3977 52.7677 84.0227ZM81.0129 65.2159C80.871 67.6307 80.5303 70.0455 79.991 72.4602L79.5084 74.5909C78.5148 79.5909 74.2852 83.3977 69.2323 84.0227C70.2542 85.2443 71.6735 86.1818 73.2916 86.5795L78.6 87.8864C78.8839 87.9716 79.1677 88 79.4516 88C80.2465 88 81.0129 87.7443 81.6374 87.2614C82.489 86.5795 83 85.5568 83 84.4489V72.2045C83 69.733 82.2903 67.2898 81.0129 65.2159ZM58.871 83.4261C58.871 84.5909 59.8361 85.5568 61 85.5568C62.1639 85.5568 63.129 84.5909 63.129 83.4261V79.875H58.871V83.4261ZM67.2934 35.9489C65.7321 34.0767 63.4385 33 61 33C58.5615 33 56.2679 34.0767 54.7066 35.9489C53.2532 37.6932 52.0155 39.5795 50.8857 41.5227H71.1143C69.9817 39.5824 68.7468 37.696 67.2934 35.9489ZM61 54.3068C59.0441 54.3068 57.4516 55.9006 57.4516 57.858C57.4516 59.8153 59.0441 61.4091 61 61.4091C62.9559 61.4091 64.5484 59.8153 64.5484 57.858C64.5484 55.9006 62.9559 54.3068 61 54.3068ZM67.6994 79.875H63.129V74.9034C63.129 73.7386 62.1639 72.7727 61 72.7727C59.8361 72.7727 58.871 73.7386 58.871 74.9034V79.875H54.3006C50.5819 79.875 47.3742 77.233 46.6361 73.5966L46.1819 71.5227C44.1948 62.858 45.2168 53.7955 48.7084 45.7841H73.2916C76.7832 53.7955 77.8052 62.858 75.8181 71.5227L75.3355 73.6534C74.6258 77.233 71.4181 79.875 67.6994 79.875ZM68.8065 57.858C68.8065 53.5398 65.3148 50.0455 61 50.0455C56.6852 50.0455 53.1935 53.5398 53.1935 57.858C53.1935 62.1761 56.6852 65.6705 61 65.6705C65.3148 65.6705 68.8065 62.1761 68.8065 57.858Z" fill="#A796FF"/>
</g>
</g>
<defs>
<filter id="filter0_b_1471_12" x="-12" y="-12" width="146" height="146" filterUnits="userSpaceOnUse" color-interpolation-filters="sRGB">
<feFlood flood-opacity="0" result="BackgroundImageFix"/>
<feGaussianBlur in="BackgroundImageFix" stdDeviation="6"/>
<feComposite in2="SourceAlpha" operator="in" result="effect1_backgroundBlur_1471_12"/>
<feBlend mode="normal" in="SourceGraphic" in2="effect1_backgroundBlur_1471_12" result="shape"/>
</filter>
<filter id="filter1_b_1471_12" x="-1" y="-1" width="124" height="124" filterUnits="userSpaceOnUse" color-interpolation-filters="sRGB">
<feFlood flood-opacity="0" result="BackgroundImageFix"/>
<feGaussianBlur in="BackgroundImageFix" stdDeviation="6"/>
<feComposite in2="SourceAlpha" operator="in" result="effect1_backgroundBlur_1471_12"/>
<feBlend mode="normal" in="SourceGraphic" in2="effect1_backgroundBlur_1471_12" result="shape"/>
</filter>
</defs>
</svg>
